<?xml version="1.0" encoding="UTF-8" standalone="no"?>
<!DOCTYPE svg PUBLIC "-//W3C//DTD SVG 1.1//EN"
 "http://www.w3.org/Graphics/SVG/1.1/DTD/svg11.dtd">
<!-- Generated by graphviz version 2.40.1 (20161225.0304)
 -->
<!-- Title: G Pages: 1 -->
<svg width="1072pt" height="614pt"
 viewBox="0.00 0.00 1071.79 613.71" xmlns="http://www.w3.org/2000/svg" xmlns:xlink="http://www.w3.org/1999/xlink">
<g id="graph0" class="graph" transform="scale(1 1) rotate(0) translate(4 609.7106)">
<title>G</title>
<polygon fill="#ffffff" stroke="transparent" points="-4,4 -4,-609.7106 1067.788,-609.7106 1067.788,4 -4,4"/>
<!-- A0 -->
<g id="node1" class="node">
<title>A0</title>
<polygon fill="none" stroke="#000000" points="94.6822,-383 .1058,-383 .1058,-347 100.6822,-347 100.6822,-377 94.6822,-383"/>
<polyline fill="none" stroke="#000000" points="94.6822,-383 94.6822,-377 "/>
<polyline fill="none" stroke="#000000" points="100.6822,-377 94.6822,-377 "/>
<text text-anchor="middle" x="50.394" y="-368" font-family="Helvetica,sans-Serif" font-size="10.00" fill="#000000">Parking System:</text>
<text text-anchor="middle" x="50.394" y="-356" font-family="Helvetica,sans-Serif" font-size="10.00" fill="#000000">Class Diagram</text>
</g>
<!-- A1 -->
<g id="node2" class="node">
<title>A1</title>
<polygon fill="none" stroke="#000000" points=".394,-489 .394,-521 100.394,-521 100.394,-489 .394,-489"/>
<text text-anchor="start" x="14.561" y="-502" font-family="Helvetica,sans-Serif" font-size="10.00" fill="#000000">CustomerProfile</text>
<polygon fill="none" stroke="#000000" points=".394,-457 .394,-489 100.394,-489 100.394,-457 .394,-457"/>
<text text-anchor="start" x="38.1725" y="-470" font-family="Helvetica,sans-Serif" font-size="10.00" fill="#000000">&#45;id:int</text>
<polygon fill="none" stroke="#000000" points=".394,-401 .394,-457 100.394,-457 100.394,-401 .394,-401"/>
<text text-anchor="start" x="10.252" y="-438" font-family="Helvetica,sans-Serif" font-size="10.00" fill="#000000">+CustomerProfile:</text>
<text text-anchor="start" x="10.252" y="-426" font-family="Helvetica,sans-Serif" font-size="10.00" fill="#000000">+CustomerProfile:</text>
<text text-anchor="start" x="25.53" y="-414" font-family="Helvetica,sans-Serif" font-size="10.00" fill="#000000">+getID():int</text>
</g>
<!-- A2 -->
<g id="node3" class="node">
<title>A2</title>
<polygon fill="none" stroke="#000000" points="150.788,-571 150.788,-603 288.788,-603 288.788,-571 150.788,-571"/>
<text text-anchor="start" x="198.1215" y="-584" font-family="Helvetica,sans-Serif" font-size="10.00" fill="#000000">Customer</text>
<polygon fill="none" stroke="#000000" points="150.788,-491 150.788,-571 288.788,-571 288.788,-491 150.788,-491"/>
<text text-anchor="start" x="207.5665" y="-552" font-family="Helvetica,sans-Serif" font-size="10.00" fill="#000000">&#45;id:int</text>
<text text-anchor="start" x="183.1255" y="-540" font-family="Helvetica,sans-Serif" font-size="10.00" fill="#000000">&#45;firstName:string</text>
<text text-anchor="start" x="183.4" y="-528" font-family="Helvetica,sans-Serif" font-size="10.00" fill="#000000">&#45;lastName:string</text>
<text text-anchor="start" x="172.837" y="-516" font-family="Helvetica,sans-Serif" font-size="10.00" fill="#000000">&#45;phoneNumber:string</text>
<text text-anchor="start" x="180.614" y="-504" font-family="Helvetica,sans-Serif" font-size="10.00" fill="#000000">&#45;address:Address</text>
<polygon fill="none" stroke="#000000" points="150.788,-435 150.788,-491 288.788,-491 288.788,-435 150.788,-435"/>
<text text-anchor="start" x="193.8125" y="-472" font-family="Helvetica,sans-Serif" font-size="10.00" fill="#000000">+Customer:</text>
<text text-anchor="start" x="193.8125" y="-460" font-family="Helvetica,sans-Serif" font-size="10.00" fill="#000000">+Customer:</text>
<text text-anchor="start" x="160.474" y="-448" font-family="Helvetica,sans-Serif" font-size="10.00" fill="#000000">+getCustomerName:String</text>
</g>
<!-- A1&#45;&gt;A2 -->
<g id="edge1" class="edge">
<title>A1&#45;&gt;A2</title>
<path fill="none" stroke="#000000" d="M112.3875,-482.2264C124.7796,-486.4694 137.8718,-490.9521 150.4919,-495.2732"/>
<polygon fill="none" stroke="#000000" points="112.1121,-482.1322 105.1399,-483.9728 100.7592,-478.2449 107.7314,-476.4042 112.1121,-482.1322"/>
</g>
<!-- A3 -->
<g id="node4" class="node">
<title>A3</title>
<polygon fill="none" stroke="#000000" points="339.288,-462 339.288,-494 464.288,-494 464.288,-462 339.288,-462"/>
<text text-anchor="start" x="383.4505" y="-475" font-family="Helvetica,sans-Serif" font-size="10.00" fill="#000000">Address</text>
<polygon fill="none" stroke="#000000" points="339.288,-370 339.288,-462 464.288,-462 464.288,-370 339.288,-370"/>
<text text-anchor="start" x="389.5665" y="-443" font-family="Helvetica,sans-Serif" font-size="10.00" fill="#000000">&#45;id:int</text>
<text text-anchor="start" x="352.892" y="-431" font-family="Helvetica,sans-Serif" font-size="10.00" fill="#000000">&#45;streetAddress1:string</text>
<text text-anchor="start" x="352.892" y="-419" font-family="Helvetica,sans-Serif" font-size="10.00" fill="#000000">&#45;streetAddress2:string</text>
<text text-anchor="start" x="379.0125" y="-407" font-family="Helvetica,sans-Serif" font-size="10.00" fill="#000000">&#45;city:string</text>
<text text-anchor="start" x="375.6735" y="-395" font-family="Helvetica,sans-Serif" font-size="10.00" fill="#000000">&#45;state:string</text>
<text text-anchor="start" x="376.228" y="-383" font-family="Helvetica,sans-Serif" font-size="10.00" fill="#000000">&#45;zipcode:int</text>
<polygon fill="none" stroke="#000000" points="339.288,-302 339.288,-370 464.288,-370 464.288,-302 339.288,-302"/>
<text text-anchor="start" x="379.1415" y="-351" font-family="Helvetica,sans-Serif" font-size="10.00" fill="#000000">+Address:</text>
<text text-anchor="start" x="379.1415" y="-339" font-family="Helvetica,sans-Serif" font-size="10.00" fill="#000000">+Address:</text>
<text text-anchor="start" x="349.138" y="-327" font-family="Helvetica,sans-Serif" font-size="10.00" fill="#000000">+getAddressInfo():array</text>
<text text-anchor="start" x="376.924" y="-315" font-family="Helvetica,sans-Serif" font-size="10.00" fill="#000000">+getID():int</text>
</g>
<!-- A1&#45;&gt;A3 -->
<g id="edge2" class="edge">
<title>A1&#45;&gt;A3</title>
<path fill="none" stroke="#000000" d="M111.9791,-437.0995C124.6628,-432.8681 138.0405,-428.8959 150.788,-426 213.8376,-411.6768 287.5508,-404.56 338.6169,-401.1024"/>
<polygon fill="none" stroke="#000000" points="111.9087,-437.1237 107.54,-442.8609 100.5639,-441.0349 104.9326,-435.2977 111.9087,-437.1237"/>
</g>
<!-- A2&#45;&gt;A3 -->
<g id="edge3" class="edge">
<title>A2&#45;&gt;A3</title>
<path fill="none" stroke="#000000" d="M297.4191,-467.2459C311.1681,-458.08 325.3274,-448.6404 338.5987,-439.7929"/>
<polygon fill="#000000" stroke="#000000" points="288.9231,-472.9099 294.7475,-463.6186 293.0834,-470.1364 297.2437,-467.3629 297.2437,-467.3629 297.2437,-467.3629 293.0834,-470.1364 299.7398,-471.1071 288.9231,-472.9099 288.9231,-472.9099"/>
</g>
<!-- A4 -->
<g id="node5" class="node">
<title>A4</title>
<polygon fill="none" stroke="#000000" points="351.288,-252 351.288,-284 451.288,-284 451.288,-252 351.288,-252"/>
<text text-anchor="start" x="384.896" y="-265" font-family="Helvetica,sans-Serif" font-size="10.00" fill="#000000">Vehicle</text>
<polygon fill="none" stroke="#000000" points="351.288,-208 351.288,-252 451.288,-252 451.288,-208 351.288,-208"/>
<text text-anchor="start" x="389.0665" y="-233" font-family="Helvetica,sans-Serif" font-size="10.00" fill="#000000">&#45;id:int</text>
<text text-anchor="start" x="361.0095" y="-221" font-family="Helvetica,sans-Serif" font-size="10.00" fill="#000000">&#45;carType:CarType</text>
<polygon fill="none" stroke="#000000" points="351.288,-176 351.288,-208 451.288,-208 451.288,-176 351.288,-176"/>
<text text-anchor="start" x="380.587" y="-189" font-family="Helvetica,sans-Serif" font-size="10.00" fill="#000000">+Vehicle:</text>
</g>
<!-- A2&#45;&gt;A4 -->
<g id="edge4" class="edge">
<title>A2&#45;&gt;A4</title>
<path fill="none" stroke="#000000" d="M256.645,-434.9893C277.7897,-390.8634 306.5213,-336.9735 338.788,-293 340.5397,-290.6128 342.3806,-288.2289 344.2875,-285.8613"/>
<polygon fill="#000000" stroke="#000000" points="350.9913,-277.8934 347.9968,-288.4425 347.7724,-281.7194 344.5534,-285.5454 344.5534,-285.5454 344.5534,-285.5454 347.7724,-281.7194 341.11,-282.6483 350.9913,-277.8934 350.9913,-277.8934"/>
</g>
<!-- A5 -->
<g id="node6" class="node">
<title>A5</title>
<polygon fill="none" stroke="#000000" points="739.788,-238 739.788,-270 859.788,-270 859.788,-238 739.788,-238"/>
<text text-anchor="start" x="773.6725" y="-251" font-family="Helvetica,sans-Serif" font-size="10.00" fill="#000000">Transaction</text>
<polygon fill="none" stroke="#000000" points="739.788,-170 739.788,-238 859.788,-238 859.788,-170 739.788,-170"/>
<text text-anchor="start" x="787.5665" y="-219" font-family="Helvetica,sans-Serif" font-size="10.00" fill="#000000">&#45;id:int</text>
<text text-anchor="start" x="754.5105" y="-207" font-family="Helvetica,sans-Serif" font-size="10.00" fill="#000000">&#45;customer:Customer</text>
<text text-anchor="start" x="772.2825" y="-195" font-family="Helvetica,sans-Serif" font-size="10.00" fill="#000000">&#45;fees:Money</text>
<text text-anchor="start" x="749.498" y="-183" font-family="Helvetica,sans-Serif" font-size="10.00" fill="#000000">&#45;parkingLot:ParkingLot</text>
<polygon fill="none" stroke="#000000" points="739.788,-138 739.788,-170 859.788,-170 859.788,-138 739.788,-138"/>
<text text-anchor="start" x="769.3635" y="-151" font-family="Helvetica,sans-Serif" font-size="10.00" fill="#000000">+Transaction:</text>
</g>
<!-- A2&#45;&gt;A5 -->
<g id="edge13" class="edge">
<title>A2&#45;&gt;A5</title>
<path fill="none" stroke="#000000" d="M288.7982,-541.1321C388.149,-568.3597 572.4088,-600.966 689.788,-513 727.8285,-484.4917 763.039,-361.7323 782.93,-279.7891"/>
<polygon fill="#000000" stroke="#000000" points="785.2789,-270.0075 787.3194,-280.7818 784.1114,-274.8692 782.9438,-279.731 782.9438,-279.731 782.9438,-279.731 784.1114,-274.8692 778.5682,-278.6803 785.2789,-270.0075 785.2789,-270.0075"/>
</g>
<!-- A6 -->
<g id="node7" class="node">
<title>A6</title>
<polygon fill="none" stroke="#000000" points="909.788,-232 909.788,-264 1063.788,-264 1063.788,-232 909.788,-232"/>
<text text-anchor="start" x="968.726" y="-245" font-family="Helvetica,sans-Serif" font-size="10.00" fill="#000000">Balance</text>
<polygon fill="none" stroke="#000000" points="909.788,-176 909.788,-232 1063.788,-232 1063.788,-176 909.788,-176"/>
<text text-anchor="start" x="941.5105" y="-213" font-family="Helvetica,sans-Serif" font-size="10.00" fill="#000000">&#45;customer:Customer</text>
<text text-anchor="start" x="919.5505" y="-201" font-family="Helvetica,sans-Serif" font-size="10.00" fill="#000000">&#45;transaction:List&lt;Transaction&gt;</text>
<text text-anchor="start" x="951.224" y="-189" font-family="Helvetica,sans-Serif" font-size="10.00" fill="#000000">&#45;balance:Money</text>
<polygon fill="none" stroke="#000000" points="909.788,-144 909.788,-176 1063.788,-176 1063.788,-144 909.788,-144"/>
<text text-anchor="start" x="964.417" y="-157" font-family="Helvetica,sans-Serif" font-size="10.00" fill="#000000">+Balance:</text>
</g>
<!-- A2&#45;&gt;A6 -->
<g id="edge16" class="edge">
<title>A2&#45;&gt;A6</title>
<path fill="none" stroke="#000000" d="M289.0057,-558.4826C304.8832,-565.7265 322.0342,-572.1945 338.788,-576 491.1851,-610.6154 551.2125,-627.2491 689.788,-555 811.0101,-491.7985 902.9601,-356.0724 950.5515,-273.1423"/>
<polygon fill="#000000" stroke="#000000" points="955.5764,-264.2934 954.5515,-275.2113 953.1074,-268.6413 950.6384,-272.9892 950.6384,-272.9892 950.6384,-272.9892 953.1074,-268.6413 946.7252,-270.7671 955.5764,-264.2934 955.5764,-264.2934"/>
</g>
<!-- A7 -->
<g id="node8" class="node">
<title>A7</title>
<polygon fill="none" stroke="#000000" points="513.788,-472 513.788,-504 689.788,-504 689.788,-472 513.788,-472"/>
<text text-anchor="start" x="571.7835" y="-485" font-family="Helvetica,sans-Serif" font-size="10.00" fill="#000000">ParkingOffice</text>
<polygon fill="none" stroke="#000000" points="513.788,-404 513.788,-472 689.788,-472 689.788,-404 513.788,-404"/>
<text text-anchor="start" x="542.8945" y="-453" font-family="Helvetica,sans-Serif" font-size="10.00" fill="#000000">&#45;parkingOfficeName:String</text>
<text text-anchor="start" x="527.896" y="-441" font-family="Helvetica,sans-Serif" font-size="10.00" fill="#000000">&#45;listOfCustomers:List&lt;Customer&gt;</text>
<text text-anchor="start" x="523.438" y="-429" font-family="Helvetica,sans-Serif" font-size="10.00" fill="#000000">&#45;listOfParkingLots:List&lt;ParkingLot&gt;</text>
<text text-anchor="start" x="535.799" y="-417" font-family="Helvetica,sans-Serif" font-size="10.00" fill="#000000">&#45;parkingLot+Address:Address</text>
<polygon fill="none" stroke="#000000" points="513.788,-348 513.788,-404 689.788,-404 689.788,-348 513.788,-348"/>
<text text-anchor="start" x="567.4745" y="-385" font-family="Helvetica,sans-Serif" font-size="10.00" fill="#000000">+ParkingOffice:</text>
<text text-anchor="start" x="567.4745" y="-373" font-family="Helvetica,sans-Serif" font-size="10.00" fill="#000000">+ParkingOffice:</text>
<text text-anchor="start" x="546.6485" y="-361" font-family="Helvetica,sans-Serif" font-size="10.00" fill="#000000">+register(Customer):void</text>
</g>
<!-- A2&#45;&gt;A7 -->
<g id="edge6" class="edge">
<title>A2&#45;&gt;A7</title>
<path fill="none" stroke="#000000" d="M289.0423,-522.4861C338.6764,-523.0656 406.586,-519.8962 463.788,-503 477.4701,-498.9586 491.2876,-493.382 504.6212,-487.0607"/>
<polygon fill="#000000" stroke="#000000" points="513.7671,-482.5751 506.7703,-491.0188 509.2779,-484.7768 504.7888,-486.9785 504.7888,-486.9785 504.7888,-486.9785 509.2779,-484.7768 502.8072,-482.9383 513.7671,-482.5751 513.7671,-482.5751"/>
</g>
<!-- A3&#45;&gt;A7 -->
<g id="edge7" class="edge">
<title>A3&#45;&gt;A7</title>
<path fill="none" stroke="#000000" d="M463.9027,-406.7442C476.4466,-408.496 489.9101,-410.3762 503.3308,-412.2504"/>
<polygon fill="#000000" stroke="#000000" points="513.5694,-413.6802 503.0431,-416.7538 508.6175,-412.9886 503.6655,-412.297 503.6655,-412.297 503.6655,-412.297 508.6175,-412.9886 504.2879,-407.8403 513.5694,-413.6802 513.5694,-413.6802"/>
</g>
<!-- A9 -->
<g id="node10" class="node">
<title>A9</title>
<polygon fill="none" stroke="#000000" points="521.788,-250 521.788,-282 681.788,-282 681.788,-250 521.788,-250"/>
<text text-anchor="start" x="577.8925" y="-263" font-family="Helvetica,sans-Serif" font-size="10.00" fill="#000000">ParkingLot</text>
<polygon fill="none" stroke="#000000" points="521.788,-182 521.788,-250 681.788,-250 681.788,-182 521.788,-182"/>
<text text-anchor="start" x="581.788" y="-231" font-family="Helvetica,sans-Serif" font-size="10.00" fill="#000000">&#45;id:String</text>
<text text-anchor="start" x="573.174" y="-219" font-family="Helvetica,sans-Serif" font-size="10.00" fill="#000000">&#45;name:String</text>
<text text-anchor="start" x="562.614" y="-207" font-family="Helvetica,sans-Serif" font-size="10.00" fill="#000000">&#45;address:Address</text>
<text text-anchor="start" x="569.5635" y="-195" font-family="Helvetica,sans-Serif" font-size="10.00" fill="#000000">&#45;maxCost:long</text>
<polygon fill="none" stroke="#000000" points="521.788,-126 521.788,-182 681.788,-182 681.788,-126 521.788,-126"/>
<text text-anchor="start" x="573.5835" y="-163" font-family="Helvetica,sans-Serif" font-size="10.00" fill="#000000">+ParkingLot:</text>
<text text-anchor="start" x="573.5835" y="-151" font-family="Helvetica,sans-Serif" font-size="10.00" fill="#000000">+ParkingLot:</text>
<text text-anchor="start" x="531.3655" y="-139" font-family="Helvetica,sans-Serif" font-size="10.00" fill="#000000">+getDailyRate(CarType):Money</text>
</g>
<!-- A3&#45;&gt;A9 -->
<g id="edge9" class="edge">
<title>A3&#45;&gt;A9</title>
<path fill="none" stroke="#000000" d="M463.9027,-337.4152C479.8882,-321.9479 497.3673,-305.0355 514.3478,-288.6055"/>
<polygon fill="#000000" stroke="#000000" points="521.5889,-281.5991 517.5314,-291.7868 517.9956,-285.076 514.4023,-288.5528 514.4023,-288.5528 514.4023,-288.5528 517.9956,-285.076 511.2731,-285.3188 521.5889,-281.5991 521.5889,-281.5991"/>
</g>
<!-- A5&#45;&gt;A6 -->
<g id="edge5" class="edge">
<title>A5&#45;&gt;A6</title>
<path fill="none" stroke="#000000" d="M859.9853,-204C872.5775,-204 886.0966,-204 899.4475,-204"/>
<polygon fill="#000000" stroke="#000000" points="909.6061,-204 899.6061,-208.5001 904.6061,-204 899.6061,-204.0001 899.6061,-204.0001 899.6061,-204.0001 904.6061,-204 899.6061,-199.5001 909.6061,-204 909.6061,-204"/>
</g>
<!-- A8 -->
<g id="node9" class="node">
<title>A8</title>
<polygon fill="none" stroke="#000000" points="356.288,-88 356.288,-120 446.288,-120 446.288,-88 356.288,-88"/>
<text text-anchor="start" x="386.285" y="-101" font-family="Helvetica,sans-Serif" font-size="10.00" fill="#000000">Money</text>
<polygon fill="none" stroke="#000000" points="356.288,-44 356.288,-88 446.288,-88 446.288,-44 356.288,-44"/>
<text text-anchor="start" x="372.114" y="-69" font-family="Helvetica,sans-Serif" font-size="10.00" fill="#000000">&#45;amount:long</text>
<text text-anchor="start" x="366.0095" y="-57" font-family="Helvetica,sans-Serif" font-size="10.00" fill="#000000">&#45;currency:String</text>
<polygon fill="none" stroke="#000000" points="356.288,0 356.288,-44 446.288,-44 446.288,0 356.288,0"/>
<text text-anchor="start" x="381.976" y="-25" font-family="Helvetica,sans-Serif" font-size="10.00" fill="#000000">+Money:</text>
<text text-anchor="start" x="381.976" y="-13" font-family="Helvetica,sans-Serif" font-size="10.00" fill="#000000">+Money:</text>
</g>
<!-- A8&#45;&gt;A5 -->
<g id="edge12" class="edge">
<title>A8&#45;&gt;A5</title>
<path fill="none" stroke="#000000" d="M446.5071,-66.2808C516.4016,-76.4321 647.0769,-97.3022 689.788,-117 704.1614,-123.6288 718.3281,-132.5011 731.4663,-142.0501"/>
<polygon fill="#000000" stroke="#000000" points="739.5065,-148.0691 728.8043,-145.6785 735.5038,-145.0726 731.5011,-142.0761 731.5011,-142.0761 731.5011,-142.0761 735.5038,-145.0726 734.198,-138.4737 739.5065,-148.0691 739.5065,-148.0691"/>
</g>
<!-- A8&#45;&gt;A6 -->
<g id="edge15" class="edge">
<title>A8&#45;&gt;A6</title>
<path fill="none" stroke="#000000" d="M446.6835,-58.5262C503.874,-57.508 604.9416,-58.4996 689.788,-74 767.9065,-88.2713 787.3814,-96.3893 859.788,-129 873.3862,-135.1244 887.3705,-142.3441 900.8614,-149.8437"/>
<polygon fill="#000000" stroke="#000000" points="909.6465,-154.8037 898.7261,-153.8058 905.2926,-152.3455 900.9386,-149.8872 900.9386,-149.8872 900.9386,-149.8872 905.2926,-152.3455 903.151,-145.9686 909.6465,-154.8037 909.6465,-154.8037"/>
</g>
<!-- A8&#45;&gt;A9 -->
<g id="edge8" class="edge">
<title>A8&#45;&gt;A9</title>
<path fill="none" stroke="#000000" d="M446.5341,-92.496C466.371,-106.7429 490.3695,-123.9788 513.5054,-140.5951"/>
<polygon fill="#000000" stroke="#000000" points="521.6446,-146.4407 510.8973,-144.2622 517.5835,-143.5239 513.5224,-140.6072 513.5224,-140.6072 513.5224,-140.6072 517.5835,-143.5239 516.1474,-136.9522 521.6446,-146.4407 521.6446,-146.4407"/>
</g>
<!-- A9&#45;&gt;A5 -->
<g id="edge14" class="edge">
<title>A9&#45;&gt;A5</title>
<path fill="none" stroke="#000000" d="M682.0367,-204C697.6273,-204 713.8618,-204 729.1164,-204"/>
<polygon fill="#000000" stroke="#000000" points="739.5009,-204 729.5009,-208.5001 734.5009,-204 729.5009,-204.0001 729.5009,-204.0001 729.5009,-204.0001 734.5009,-204 729.5008,-199.5001 739.5009,-204 739.5009,-204"/>
</g>
<!-- A10 -->
<g id="node11" class="node">
<title>A10</title>
<polygon fill="none" stroke="#000000" points="179.788,-205 179.788,-237 259.788,-237 259.788,-205 179.788,-205"/>
<text text-anchor="start" x="195.607" y="-218" font-family="Helvetica,sans-Serif" font-size="10.00" fill="#000000">&lt;&lt;enum&gt;&gt;</text>
<polygon fill="none" stroke="#000000" points="179.788,-173 179.788,-205 259.788,-205 259.788,-173 179.788,-173"/>
<text text-anchor="start" x="200.621" y="-186" font-family="Helvetica,sans-Serif" font-size="10.00" fill="#000000">CarType</text>
<polygon fill="none" stroke="#000000" points="179.788,-141 179.788,-173 259.788,-173 259.788,-141 179.788,-141"/>
<text text-anchor="start" x="189.779" y="-154" font-family="Helvetica,sans-Serif" font-size="10.00" fill="#000000">&#45;value:double</text>
</g>
<!-- A10&#45;&gt;A4 -->
<g id="edge11" class="edge">
<title>A10&#45;&gt;A4</title>
<path fill="none" stroke="#000000" d="M260.0687,-198.0992C283.8684,-203.4755 314.4584,-210.3856 341.0793,-216.3991"/>
<polygon fill="#000000" stroke="#000000" points="351.0652,-218.6549 340.3194,-220.8408 346.1881,-217.5532 341.311,-216.4514 341.311,-216.4514 341.311,-216.4514 346.1881,-217.5532 342.3026,-212.062 351.0652,-218.6549 351.0652,-218.6549"/>
</g>
<!-- A10&#45;&gt;A9 -->
<g id="edge10" class="edge">
<title>A10&#45;&gt;A9</title>
<path fill="none" stroke="#000000" d="M260.016,-179.669C282.9546,-174.8262 312.3215,-169.4259 338.788,-167 394.1116,-161.929 408.7083,-159.7443 463.788,-167 479.4693,-169.0657 495.9006,-172.398 511.7354,-176.2376"/>
<polygon fill="#000000" stroke="#000000" points="521.5056,-178.6871 510.7114,-180.6201 516.6557,-177.4712 511.8058,-176.2552 511.8058,-176.2552 511.8058,-176.2552 516.6557,-177.4712 512.9002,-171.8903 521.5056,-178.6871 521.5056,-178.6871"/>
</g>
</g>
</svg>
