<?xml version="1.0" encoding="UTF-8" standalone="no"?>
<!DOCTYPE svg PUBLIC "-//W3C//DTD SVG 1.1//EN"
 "http://www.w3.org/Graphics/SVG/1.1/DTD/svg11.dtd">
<!-- Generated by graphviz version 2.40.1 (20161225.0304)
 -->
<!-- Title: G Pages: 1 -->
<svg width="610pt" height="1170pt"
 viewBox="0.00 0.00 610.00 1170.00" xmlns="http://www.w3.org/2000/svg" xmlns:xlink="http://www.w3.org/1999/xlink">
<g id="graph0" class="graph" transform="scale(1 1) rotate(0) translate(4 1166)">
<title>G</title>
<polygon fill="#ffffff" stroke="transparent" points="-4,4 -4,-1166 606,-1166 606,4 -4,4"/>
<!-- A0 -->
<g id="node1" class="node">
<title>A0</title>
<polygon fill="none" stroke="#000000" points="200.2882,-1120 105.7118,-1120 105.7118,-1084 206.2882,-1084 206.2882,-1114 200.2882,-1120"/>
<polyline fill="none" stroke="#000000" points="200.2882,-1120 200.2882,-1114 "/>
<polyline fill="none" stroke="#000000" points="206.2882,-1114 200.2882,-1114 "/>
<text text-anchor="middle" x="156" y="-1105" font-family="Helvetica,sans-Serif" font-size="10.00" fill="#000000">Parking System:</text>
<text text-anchor="middle" x="156" y="-1093" font-family="Helvetica,sans-Serif" font-size="10.00" fill="#000000">Class Diagram</text>
</g>
<!-- A1 -->
<g id="node2" class="node">
<title>A1</title>
<polygon fill="none" stroke="#000000" points="224,-1130 224,-1162 324,-1162 324,-1130 224,-1130"/>
<text text-anchor="start" x="238.167" y="-1143" font-family="Helvetica,sans-Serif" font-size="10.00" fill="#000000">CustomerProfile</text>
<polygon fill="none" stroke="#000000" points="224,-1098 224,-1130 324,-1130 324,-1098 224,-1098"/>
<text text-anchor="start" x="261.7785" y="-1111" font-family="Helvetica,sans-Serif" font-size="10.00" fill="#000000">&#45;id:int</text>
<polygon fill="none" stroke="#000000" points="224,-1042 224,-1098 324,-1098 324,-1042 224,-1042"/>
<text text-anchor="start" x="233.858" y="-1079" font-family="Helvetica,sans-Serif" font-size="10.00" fill="#000000">+CustomerProfile:</text>
<text text-anchor="start" x="233.858" y="-1067" font-family="Helvetica,sans-Serif" font-size="10.00" fill="#000000">+CustomerProfile:</text>
<text text-anchor="start" x="249.136" y="-1055" font-family="Helvetica,sans-Serif" font-size="10.00" fill="#000000">+getID():int</text>
</g>
<!-- A2 -->
<g id="node3" class="node">
<title>A2</title>
<polygon fill="none" stroke="#000000" points="108,-960 108,-992 246,-992 246,-960 108,-960"/>
<text text-anchor="start" x="155.3335" y="-973" font-family="Helvetica,sans-Serif" font-size="10.00" fill="#000000">Customer</text>
<polygon fill="none" stroke="#000000" points="108,-880 108,-960 246,-960 246,-880 108,-880"/>
<text text-anchor="start" x="164.7785" y="-941" font-family="Helvetica,sans-Serif" font-size="10.00" fill="#000000">&#45;id:int</text>
<text text-anchor="start" x="140.3375" y="-929" font-family="Helvetica,sans-Serif" font-size="10.00" fill="#000000">&#45;firstName:string</text>
<text text-anchor="start" x="140.612" y="-917" font-family="Helvetica,sans-Serif" font-size="10.00" fill="#000000">&#45;lastName:string</text>
<text text-anchor="start" x="130.049" y="-905" font-family="Helvetica,sans-Serif" font-size="10.00" fill="#000000">&#45;phoneNumber:string</text>
<text text-anchor="start" x="137.826" y="-893" font-family="Helvetica,sans-Serif" font-size="10.00" fill="#000000">&#45;address:Address</text>
<polygon fill="none" stroke="#000000" points="108,-824 108,-880 246,-880 246,-824 108,-824"/>
<text text-anchor="start" x="151.0245" y="-861" font-family="Helvetica,sans-Serif" font-size="10.00" fill="#000000">+Customer:</text>
<text text-anchor="start" x="151.0245" y="-849" font-family="Helvetica,sans-Serif" font-size="10.00" fill="#000000">+Customer:</text>
<text text-anchor="start" x="117.686" y="-837" font-family="Helvetica,sans-Serif" font-size="10.00" fill="#000000">+getCustomerName:String</text>
</g>
<!-- A1&#45;&gt;A2 -->
<g id="edge1" class="edge">
<title>A1&#45;&gt;A2</title>
<path fill="none" stroke="#000000" d="M238.5356,-1031.0711C232.2422,-1018.4844 225.6325,-1005.265 219.175,-992.35"/>
<polygon fill="none" stroke="#000000" points="238.6063,-1031.2126 244.8673,-1034.7903 243.9729,-1041.9458 237.7119,-1038.3681 238.6063,-1031.2126"/>
</g>
<!-- A3 -->
<g id="node4" class="node">
<title>A3</title>
<polygon fill="none" stroke="#000000" points="274,-742 274,-774 399,-774 399,-742 274,-742"/>
<text text-anchor="start" x="318.1625" y="-755" font-family="Helvetica,sans-Serif" font-size="10.00" fill="#000000">Address</text>
<polygon fill="none" stroke="#000000" points="274,-650 274,-742 399,-742 399,-650 274,-650"/>
<text text-anchor="start" x="324.2785" y="-723" font-family="Helvetica,sans-Serif" font-size="10.00" fill="#000000">&#45;id:int</text>
<text text-anchor="start" x="287.604" y="-711" font-family="Helvetica,sans-Serif" font-size="10.00" fill="#000000">&#45;streetAddress1:string</text>
<text text-anchor="start" x="287.604" y="-699" font-family="Helvetica,sans-Serif" font-size="10.00" fill="#000000">&#45;streetAddress2:string</text>
<text text-anchor="start" x="313.7245" y="-687" font-family="Helvetica,sans-Serif" font-size="10.00" fill="#000000">&#45;city:string</text>
<text text-anchor="start" x="310.3855" y="-675" font-family="Helvetica,sans-Serif" font-size="10.00" fill="#000000">&#45;state:string</text>
<text text-anchor="start" x="310.94" y="-663" font-family="Helvetica,sans-Serif" font-size="10.00" fill="#000000">&#45;zipcode:int</text>
<polygon fill="none" stroke="#000000" points="274,-582 274,-650 399,-650 399,-582 274,-582"/>
<text text-anchor="start" x="313.8535" y="-631" font-family="Helvetica,sans-Serif" font-size="10.00" fill="#000000">+Address:</text>
<text text-anchor="start" x="313.8535" y="-619" font-family="Helvetica,sans-Serif" font-size="10.00" fill="#000000">+Address:</text>
<text text-anchor="start" x="283.85" y="-607" font-family="Helvetica,sans-Serif" font-size="10.00" fill="#000000">+getAddressInfo():array</text>
<text text-anchor="start" x="311.636" y="-595" font-family="Helvetica,sans-Serif" font-size="10.00" fill="#000000">+getID():int</text>
</g>
<!-- A1&#45;&gt;A3 -->
<g id="edge2" class="edge">
<title>A1&#45;&gt;A3</title>
<path fill="none" stroke="#000000" d="M331.1042,-1036.104C340.1077,-1022.3471 348.0629,-1007.338 353,-992 375.7078,-921.4536 369.5527,-837.4314 358.76,-774.0619"/>
<polygon fill="none" stroke="#000000" points="330.8474,-1036.4774 330.7432,-1043.6878 324.0473,-1046.3647 324.1516,-1039.1544 330.8474,-1036.4774"/>
</g>
<!-- A2&#45;&gt;A3 -->
<g id="edge3" class="edge">
<title>A2&#45;&gt;A3</title>
<path fill="none" stroke="#000000" d="M240.9494,-815.4946C251.5996,-800.0886 262.6373,-784.1221 273.2571,-768.7602"/>
<polygon fill="#000000" stroke="#000000" points="235.0776,-823.9884 237.0625,-813.2037 237.9209,-819.8755 240.7641,-815.7626 240.7641,-815.7626 240.7641,-815.7626 237.9209,-819.8755 244.4657,-818.3216 235.0776,-823.9884 235.0776,-823.9884"/>
</g>
<!-- A4 -->
<g id="node5" class="node">
<title>A4</title>
<polygon fill="none" stroke="#000000" points="64,-730 64,-762 196,-762 196,-730 64,-730"/>
<text text-anchor="start" x="121.9465" y="-743" font-family="Helvetica,sans-Serif" font-size="10.00" fill="#000000">Car</text>
<polygon fill="none" stroke="#000000" points="64,-662 64,-730 196,-730 196,-662 64,-662"/>
<text text-anchor="start" x="117.7785" y="-711" font-family="Helvetica,sans-Serif" font-size="10.00" fill="#000000">&#45;id:int</text>
<text text-anchor="start" x="98.3305" y="-699" font-family="Helvetica,sans-Serif" font-size="10.00" fill="#000000">&#45;type:CarType</text>
<text text-anchor="start" x="86.939" y="-687" font-family="Helvetica,sans-Serif" font-size="10.00" fill="#000000">&#45;licensePlate:String</text>
<text text-anchor="start" x="90.557" y="-675" font-family="Helvetica,sans-Serif" font-size="10.00" fill="#000000">&#45;Owner:Customer</text>
<polygon fill="none" stroke="#000000" points="64,-594 64,-662 196,-662 196,-594 64,-594"/>
<text text-anchor="start" x="117.6375" y="-643" font-family="Helvetica,sans-Serif" font-size="10.00" fill="#000000">+Car:</text>
<text text-anchor="start" x="85.133" y="-631" font-family="Helvetica,sans-Serif" font-size="10.00" fill="#000000">+getType():CarType</text>
<text text-anchor="start" x="73.7365" y="-619" font-family="Helvetica,sans-Serif" font-size="10.00" fill="#000000">+getLicensePlate():String</text>
<text text-anchor="start" x="79.0245" y="-607" font-family="Helvetica,sans-Serif" font-size="10.00" fill="#000000">+getOwner():Customer</text>
</g>
<!-- A2&#45;&gt;A4 -->
<g id="edge4" class="edge">
<title>A2&#45;&gt;A4</title>
<path fill="none" stroke="#000000" d="M159.8324,-823.9884C156.3908,-807.1467 152.7535,-789.3468 149.2468,-772.1865"/>
<polygon fill="#000000" stroke="#000000" points="147.1997,-762.1688 153.6108,-771.0653 148.2008,-767.0676 149.2019,-771.9663 149.2019,-771.9663 149.2019,-771.9663 148.2008,-767.0676 144.793,-772.8673 147.1997,-762.1688 147.1997,-762.1688"/>
</g>
<!-- A5 -->
<g id="node6" class="node">
<title>A5</title>
<polygon fill="none" stroke="#000000" points="175,-500 175,-532 351,-532 351,-500 175,-500"/>
<text text-anchor="start" x="232.9955" y="-513" font-family="Helvetica,sans-Serif" font-size="10.00" fill="#000000">ParkingOffice</text>
<polygon fill="none" stroke="#000000" points="175,-432 175,-500 351,-500 351,-432 175,-432"/>
<text text-anchor="start" x="204.1065" y="-481" font-family="Helvetica,sans-Serif" font-size="10.00" fill="#000000">&#45;parkingOfficeName:String</text>
<text text-anchor="start" x="189.108" y="-469" font-family="Helvetica,sans-Serif" font-size="10.00" fill="#000000">&#45;listOfCustomers:List&lt;Customer&gt;</text>
<text text-anchor="start" x="184.65" y="-457" font-family="Helvetica,sans-Serif" font-size="10.00" fill="#000000">&#45;listOfParkingLots:List&lt;ParkingLot&gt;</text>
<text text-anchor="start" x="197.011" y="-445" font-family="Helvetica,sans-Serif" font-size="10.00" fill="#000000">&#45;parkingLot+Address:Address</text>
<polygon fill="none" stroke="#000000" points="175,-376 175,-432 351,-432 351,-376 175,-376"/>
<text text-anchor="start" x="228.6865" y="-413" font-family="Helvetica,sans-Serif" font-size="10.00" fill="#000000">+ParkingOffice:</text>
<text text-anchor="start" x="228.6865" y="-401" font-family="Helvetica,sans-Serif" font-size="10.00" fill="#000000">+ParkingOffice:</text>
<text text-anchor="start" x="207.8605" y="-389" font-family="Helvetica,sans-Serif" font-size="10.00" fill="#000000">+register(Customer):void</text>
</g>
<!-- A2&#45;&gt;A5 -->
<g id="edge5" class="edge">
<title>A2&#45;&gt;A5</title>
<path fill="none" stroke="#000000" d="M194.9683,-823.7213C198.379,-807.2491 201.8603,-790.0954 205,-774 220.2631,-695.7543 236.3335,-606.4755 247.6774,-542.1368"/>
<polygon fill="#000000" stroke="#000000" points="249.4567,-532.0305 252.1546,-542.6593 248.5897,-536.9548 247.7227,-541.8791 247.7227,-541.8791 247.7227,-541.8791 248.5897,-536.9548 243.2909,-541.0988 249.4567,-532.0305 249.4567,-532.0305"/>
</g>
<!-- A3&#45;&gt;A5 -->
<g id="edge6" class="edge">
<title>A3&#45;&gt;A5</title>
<path fill="none" stroke="#000000" d="M304.6178,-581.7039C300.3374,-568.5695 295.9612,-555.1413 291.731,-542.161"/>
<polygon fill="#000000" stroke="#000000" points="288.5287,-532.3345 295.9058,-540.448 290.078,-537.0884 291.6273,-541.8423 291.6273,-541.8423 291.6273,-541.8423 290.078,-537.0884 287.3487,-543.2367 288.5287,-532.3345 288.5287,-532.3345"/>
</g>
<!-- A7 -->
<g id="node8" class="node">
<title>A7</title>
<polygon fill="none" stroke="#000000" points="369,-500 369,-532 529,-532 529,-500 369,-500"/>
<text text-anchor="start" x="425.1045" y="-513" font-family="Helvetica,sans-Serif" font-size="10.00" fill="#000000">ParkingLot</text>
<polygon fill="none" stroke="#000000" points="369,-432 369,-500 529,-500 529,-432 369,-432"/>
<text text-anchor="start" x="429" y="-481" font-family="Helvetica,sans-Serif" font-size="10.00" fill="#000000">&#45;id:String</text>
<text text-anchor="start" x="420.386" y="-469" font-family="Helvetica,sans-Serif" font-size="10.00" fill="#000000">&#45;name:String</text>
<text text-anchor="start" x="409.826" y="-457" font-family="Helvetica,sans-Serif" font-size="10.00" fill="#000000">&#45;address:Address</text>
<text text-anchor="start" x="411.2165" y="-445" font-family="Helvetica,sans-Serif" font-size="10.00" fill="#000000">&#45;maxCost:double</text>
<polygon fill="none" stroke="#000000" points="369,-376 369,-432 529,-432 529,-376 369,-376"/>
<text text-anchor="start" x="420.7955" y="-413" font-family="Helvetica,sans-Serif" font-size="10.00" fill="#000000">+ParkingLot:</text>
<text text-anchor="start" x="420.7955" y="-401" font-family="Helvetica,sans-Serif" font-size="10.00" fill="#000000">+ParkingLot:</text>
<text text-anchor="start" x="378.5775" y="-389" font-family="Helvetica,sans-Serif" font-size="10.00" fill="#000000">+getDailyRate(CarType):Money</text>
</g>
<!-- A3&#45;&gt;A7 -->
<g id="edge8" class="edge">
<title>A3&#45;&gt;A7</title>
<path fill="none" stroke="#000000" d="M384.578,-581.7039C391.3337,-568.312 398.2435,-554.6146 404.9108,-541.398"/>
<polygon fill="#000000" stroke="#000000" points="409.483,-532.3345 408.9967,-543.2896 407.231,-536.7986 404.979,-541.2628 404.979,-541.2628 404.979,-541.2628 407.231,-536.7986 400.9613,-539.236 409.483,-532.3345 409.483,-532.3345"/>
</g>
<!-- A10 -->
<g id="node11" class="node">
<title>A10</title>
<polygon fill="none" stroke="#000000" points="66,-488 66,-520 157,-520 157,-488 66,-488"/>
<text text-anchor="start" x="80.111" y="-501" font-family="Helvetica,sans-Serif" font-size="10.00" fill="#000000">ParkingPermit</text>
<polygon fill="none" stroke="#000000" points="66,-432 66,-488 157,-488 157,-432 66,-432"/>
<text text-anchor="start" x="91.5" y="-469" font-family="Helvetica,sans-Serif" font-size="10.00" fill="#000000">&#45;id:String</text>
<text text-anchor="start" x="93.4485" y="-457" font-family="Helvetica,sans-Serif" font-size="10.00" fill="#000000">&#45;car:Car</text>
<text text-anchor="start" x="76.2175" y="-445" font-family="Helvetica,sans-Serif" font-size="10.00" fill="#000000">&#45;expiration:Date</text>
<polygon fill="none" stroke="#000000" points="66,-388 66,-432 157,-432 157,-388 66,-388"/>
<text text-anchor="start" x="75.802" y="-413" font-family="Helvetica,sans-Serif" font-size="10.00" fill="#000000">+ParkingPermit:</text>
<text text-anchor="start" x="80.8065" y="-401" font-family="Helvetica,sans-Serif" font-size="10.00" fill="#000000">+getCar():Car</text>
</g>
<!-- A4&#45;&gt;A10 -->
<g id="edge13" class="edge">
<title>A4&#45;&gt;A10</title>
<path fill="none" stroke="#000000" d="M122.871,-593.9534C121.1055,-573.1382 119.2232,-550.9469 117.4899,-530.5131"/>
<polygon fill="#000000" stroke="#000000" points="116.6255,-520.3218 121.9547,-529.9057 117.0481,-525.3039 117.4708,-530.2861 117.4708,-530.2861 117.4708,-530.2861 117.0481,-525.3039 112.9869,-530.6664 116.6255,-520.3218 116.6255,-520.3218"/>
</g>
<!-- A11 -->
<g id="node12" class="node">
<title>A11</title>
<polygon fill="none" stroke="#000000" points="0,-276 0,-308 148,-308 148,-276 0,-276"/>
<text text-anchor="start" x="39.8315" y="-289" font-family="Helvetica,sans-Serif" font-size="10.00" fill="#000000">PermitManager</text>
<polygon fill="none" stroke="#000000" points="0,-244 0,-276 148,-276 148,-244 0,-244"/>
<text text-anchor="start" x="9.5525" y="-257" font-family="Helvetica,sans-Serif" font-size="10.00" fill="#000000">&#45;permits:List&lt;ParkingPermit&gt;</text>
<polygon fill="none" stroke="#000000" points="0,-200 0,-244 148,-244 148,-200 0,-200"/>
<text text-anchor="start" x="35.5225" y="-225" font-family="Helvetica,sans-Serif" font-size="10.00" fill="#000000">+PermitManager:</text>
<text text-anchor="start" x="10.253" y="-213" font-family="Helvetica,sans-Serif" font-size="10.00" fill="#000000">+register(Car):ParkingPermit</text>
</g>
<!-- A4&#45;&gt;A11 -->
<g id="edge15" class="edge">
<title>A4&#45;&gt;A11</title>
<path fill="none" stroke="#000000" d="M78.9495,-593.7282C69.468,-574.1253 60.9864,-552.8674 56,-532 38.8217,-460.1106 48.568,-374.9811 59.2144,-318.0389"/>
<polygon fill="#000000" stroke="#000000" points="61.1361,-308.096 63.6566,-318.7683 60.1873,-313.0052 59.2384,-317.9143 59.2384,-317.9143 59.2384,-317.9143 60.1873,-313.0052 54.8201,-317.0603 61.1361,-308.096 61.1361,-308.096"/>
</g>
<!-- A6 -->
<g id="node7" class="node">
<title>A6</title>
<polygon fill="none" stroke="#000000" points="512,-700 512,-732 602,-732 602,-700 512,-700"/>
<text text-anchor="start" x="541.997" y="-713" font-family="Helvetica,sans-Serif" font-size="10.00" fill="#000000">Money</text>
<polygon fill="none" stroke="#000000" points="512,-656 512,-700 602,-700 602,-656 512,-656"/>
<text text-anchor="start" x="522.267" y="-681" font-family="Helvetica,sans-Serif" font-size="10.00" fill="#000000">&#45;amount:double</text>
<text text-anchor="start" x="521.7215" y="-669" font-family="Helvetica,sans-Serif" font-size="10.00" fill="#000000">&#45;currency:String</text>
<polygon fill="none" stroke="#000000" points="512,-624 512,-656 602,-656 602,-624 512,-624"/>
<text text-anchor="start" x="537.688" y="-637" font-family="Helvetica,sans-Serif" font-size="10.00" fill="#000000">+Money:</text>
</g>
<!-- A6&#45;&gt;A7 -->
<g id="edge7" class="edge">
<title>A6&#45;&gt;A7</title>
<path fill="none" stroke="#000000" d="M530.8562,-623.7758C518.9657,-599.1141 504.5938,-569.3057 491.2323,-541.5928"/>
<polygon fill="#000000" stroke="#000000" points="486.7447,-532.2853 495.1412,-539.3387 488.9162,-536.7892 491.0878,-541.293 491.0878,-541.293 491.0878,-541.293 488.9162,-536.7892 487.0343,-543.2474 486.7447,-532.2853 486.7447,-532.2853"/>
</g>
<!-- A9 -->
<g id="node10" class="node">
<title>A9</title>
<polygon fill="none" stroke="#000000" points="322,-294 322,-326 473,-326 473,-294 322,-294"/>
<text text-anchor="start" x="354.4375" y="-307" font-family="Helvetica,sans-Serif" font-size="10.00" fill="#000000">ParkingTransaction</text>
<polygon fill="none" stroke="#000000" points="322,-226 322,-294 473,-294 473,-226 322,-226"/>
<text text-anchor="start" x="374.16" y="-275" font-family="Helvetica,sans-Serif" font-size="10.00" fill="#000000">&#45;date:Date</text>
<text text-anchor="start" x="349.17" y="-263" font-family="Helvetica,sans-Serif" font-size="10.00" fill="#000000">&#45;permit:ParkingPermit</text>
<text text-anchor="start" x="347.21" y="-251" font-family="Helvetica,sans-Serif" font-size="10.00" fill="#000000">&#45;parkingLot:ParkingLot</text>
<text text-anchor="start" x="344.154" y="-239" font-family="Helvetica,sans-Serif" font-size="10.00" fill="#000000">&#45;chargedAmount:Money</text>
<polygon fill="none" stroke="#000000" points="322,-182 322,-226 473,-226 473,-182 322,-182"/>
<text text-anchor="start" x="331.512" y="-207" font-family="Helvetica,sans-Serif" font-size="10.00" fill="#000000">+getChargedAmount():Money</text>
<text text-anchor="start" x="337.0825" y="-195" font-family="Helvetica,sans-Serif" font-size="10.00" fill="#000000">+getPermit():ParkingPermit</text>
</g>
<!-- A6&#45;&gt;A9 -->
<g id="edge11" class="edge">
<title>A6&#45;&gt;A9</title>
<path fill="none" stroke="#000000" d="M565.6695,-623.7905C573.1173,-560.7393 577.2538,-455.1942 538,-376 524.8832,-349.5369 503.205,-326.4397 480.7344,-307.6706"/>
<polygon fill="#000000" stroke="#000000" points="472.766,-301.2139 483.3686,-304.0132 476.6508,-304.3617 480.5356,-307.5095 480.5356,-307.5095 480.5356,-307.5095 476.6508,-304.3617 477.7025,-311.0058 472.766,-301.2139 472.766,-301.2139"/>
</g>
<!-- A12 -->
<g id="node13" class="node">
<title>A12</title>
<polygon fill="none" stroke="#000000" points="310,-100 310,-132 588,-132 588,-100 310,-100"/>
<text text-anchor="start" x="403.158" y="-113" font-family="Helvetica,sans-Serif" font-size="10.00" fill="#000000">TransactionManager</text>
<polygon fill="none" stroke="#000000" points="310,-68 310,-100 588,-100 588,-68 310,-68"/>
<text text-anchor="start" x="362.3155" y="-81" font-family="Helvetica,sans-Serif" font-size="10.00" fill="#000000">&#45;transactions:List&lt;ParkingTransaction&gt;</text>
<polygon fill="none" stroke="#000000" points="310,0 310,-68 588,-68 588,0 310,0"/>
<text text-anchor="start" x="398.849" y="-49" font-family="Helvetica,sans-Serif" font-size="10.00" fill="#000000">+TransactionManager:</text>
<text text-anchor="start" x="319.9545" y="-37" font-family="Helvetica,sans-Serif" font-size="10.00" fill="#000000">+park(Date,ParkingPermit,ParkingLot):ParkingTransaction</text>
<text text-anchor="start" x="352.1825" y="-25" font-family="Helvetica,sans-Serif" font-size="10.00" fill="#000000">+getParkingCharges(ParkingPermit):Money</text>
<text text-anchor="start" x="361.905" y="-13" font-family="Helvetica,sans-Serif" font-size="10.00" fill="#000000">+getParkingCharges(Customer):Money</text>
</g>
<!-- A6&#45;&gt;A12 -->
<g id="edge20" class="edge">
<title>A6&#45;&gt;A12</title>
<path fill="none" stroke="#000000" d="M562.0441,-623.9731C564.3647,-596.4665 566.8534,-562.4813 568,-532 570.6063,-462.7157 579.7886,-444.3238 568,-376 552.4401,-285.819 532.463,-267.176 499,-182 493.8202,-168.8156 488.0711,-154.8993 482.3698,-141.46"/>
<polygon fill="#000000" stroke="#000000" points="478.4379,-132.2469 486.502,-139.678 480.4005,-136.8457 482.3631,-141.4444 482.3631,-141.4444 482.3631,-141.4444 480.4005,-136.8457 478.2243,-143.2107 478.4379,-132.2469 478.4379,-132.2469"/>
</g>
<!-- A7&#45;&gt;A9 -->
<g id="edge12" class="edge">
<title>A7&#45;&gt;A9</title>
<path fill="none" stroke="#000000" d="M428.672,-375.8155C425.2898,-362.8071 421.773,-349.2809 418.366,-336.1768"/>
<polygon fill="#000000" stroke="#000000" points="415.786,-326.2537 422.6576,-334.7996 417.0442,-331.0928 418.3024,-335.932 418.3024,-335.932 418.3024,-335.932 417.0442,-331.0928 413.9472,-337.0643 415.786,-326.2537 415.786,-326.2537"/>
</g>
<!-- A7&#45;&gt;A12 -->
<g id="edge19" class="edge">
<title>A7&#45;&gt;A12</title>
<path fill="none" stroke="#000000" d="M472.4982,-375.7422C476.4499,-359.4481 479.9354,-342.278 482,-326 490.0528,-262.5086 490.8408,-245.3864 482,-182 480.1792,-168.9453 477.2583,-155.2964 473.8885,-142.135"/>
<polygon fill="#000000" stroke="#000000" points="471.2349,-132.1833 478.1596,-140.6863 472.5232,-137.0145 473.8115,-141.8457 473.8115,-141.8457 473.8115,-141.8457 472.5232,-137.0145 469.4634,-143.0052 471.2349,-132.1833 471.2349,-132.1833"/>
</g>
<!-- A8 -->
<g id="node9" class="node">
<title>A8</title>
<polygon fill="none" stroke="#000000" points="264,-924 264,-956 344,-956 344,-924 264,-924"/>
<text text-anchor="start" x="279.819" y="-937" font-family="Helvetica,sans-Serif" font-size="10.00" fill="#000000">&lt;&lt;enum&gt;&gt;</text>
<polygon fill="none" stroke="#000000" points="264,-892 264,-924 344,-924 344,-892 264,-892"/>
<text text-anchor="start" x="284.833" y="-905" font-family="Helvetica,sans-Serif" font-size="10.00" fill="#000000">CarType</text>
<polygon fill="none" stroke="#000000" points="264,-860 264,-892 344,-892 344,-860 264,-860"/>
<text text-anchor="start" x="273.991" y="-873" font-family="Helvetica,sans-Serif" font-size="10.00" fill="#000000">&#45;value:double</text>
</g>
<!-- A8&#45;&gt;A4 -->
<g id="edge10" class="edge">
<title>A8&#45;&gt;A4</title>
<path fill="none" stroke="#000000" d="M277.9797,-859.9715C270.9326,-847.9563 263.0222,-835.283 255,-824 239.1569,-801.7171 220.6501,-778.7415 202.8078,-757.7994"/>
<polygon fill="#000000" stroke="#000000" points="196.2705,-750.1809 206.1976,-754.8396 199.5265,-753.9755 202.7825,-757.77 202.7825,-757.77 202.7825,-757.77 199.5265,-753.9755 199.3675,-760.7004 196.2705,-750.1809 196.2705,-750.1809"/>
</g>
<!-- A8&#45;&gt;A7 -->
<g id="edge9" class="edge">
<title>A8&#45;&gt;A7</title>
<path fill="none" stroke="#000000" d="M344.196,-867.6023C366.4664,-842.7194 392.5071,-808.9671 407,-774 437.6995,-699.9311 447.2016,-608.6849 449.6118,-542.6065"/>
<polygon fill="#000000" stroke="#000000" points="449.9399,-532.2239 454.1217,-542.3611 449.7819,-537.2214 449.624,-542.2189 449.624,-542.2189 449.624,-542.2189 449.7819,-537.2214 445.1262,-542.0768 449.9399,-532.2239 449.9399,-532.2239"/>
</g>
<!-- A9&#45;&gt;A12 -->
<g id="edge17" class="edge">
<title>A9&#45;&gt;A12</title>
<path fill="none" stroke="#000000" d="M416.9558,-181.852C420.5619,-168.8145 424.3323,-155.1834 427.968,-142.0389"/>
<polygon fill="#000000" stroke="#000000" points="430.717,-132.1 432.3882,-142.9378 429.3841,-136.9191 428.0511,-141.7381 428.0511,-141.7381 428.0511,-141.7381 429.3841,-136.9191 423.7139,-140.5384 430.717,-132.1 430.717,-132.1"/>
</g>
<!-- A10&#45;&gt;A9 -->
<g id="edge16" class="edge">
<title>A10&#45;&gt;A9</title>
<path fill="none" stroke="#000000" d="M153.5721,-387.8852C157.515,-383.6207 161.6671,-379.6006 166,-376 206.9918,-341.9359 227.7647,-350.6884 275,-326 287.1898,-319.6288 299.8761,-312.6051 312.2601,-305.5181"/>
<polygon fill="#000000" stroke="#000000" points="321.2128,-300.3549 314.7983,-309.249 316.8815,-302.8528 312.5502,-305.3508 312.5502,-305.3508 312.5502,-305.3508 316.8815,-302.8528 310.302,-301.4527 321.2128,-300.3549 321.2128,-300.3549"/>
</g>
<!-- A10&#45;&gt;A11 -->
<g id="edge14" class="edge">
<title>A10&#45;&gt;A11</title>
<path fill="none" stroke="#000000" d="M98.7823,-387.9582C94.6387,-365.5604 90.0179,-340.5835 85.8995,-318.3216"/>
<polygon fill="#000000" stroke="#000000" points="84.0461,-308.3032 90.2902,-317.3177 84.9557,-313.2198 85.8653,-318.1363 85.8653,-318.1363 85.8653,-318.1363 84.9557,-313.2198 81.4404,-318.955 84.0461,-308.3032 84.0461,-308.3032"/>
</g>
<!-- A10&#45;&gt;A12 -->
<g id="edge18" class="edge">
<title>A10&#45;&gt;A12</title>
<path fill="none" stroke="#000000" d="M156.7662,-388.7752C159.8765,-384.4414 162.9752,-380.1515 166,-376 229.5452,-288.7827 237.9177,-260.4643 312,-182 325.882,-167.2969 341.5276,-152.5954 357.1511,-138.8391"/>
<polygon fill="#000000" stroke="#000000" points="364.8112,-132.166 360.2269,-142.1277 361.0411,-135.4503 357.271,-138.7346 357.271,-138.7346 357.271,-138.7346 361.0411,-135.4503 354.3152,-135.3415 364.8112,-132.166 364.8112,-132.166"/>
</g>
</g>
</svg>
